<?xml version="1.0" encoding="utf-8"?>
<!-- Generator: Adobe Illustrator 26.3.1, SVG Export Plug-In . SVG Version: 6.00 Build 0)  -->
<svg version="1.1" id="Layer_1" xmlns="http://www.w3.org/2000/svg" xmlns:xlink="http://www.w3.org/1999/xlink" x="0px" y="0px"
	 viewBox="0 0 32 32" style="enable-background:new 0 0 32 32;" xml:space="preserve">
<style type="text/css">
	.st0{display:none;}
	.st1{display:inline;}
	.st2{fill:#E40D7D;}
	.st3{display:inline;opacity:0.3;}
	.st4{fill:#FFFFFF;}
</style>
<g id="maske" class="st0">
	<g class="st1">
		<path class="st2" d="M31.8,0.2v31.6H0.2V0.2H31.8 M32,0H0v32h32V0L32,0z"/>
	</g>
	<g class="st3">
		<rect y="4" class="st2" width="32" height="24"/>
	</g>
	<g class="st3">
		<rect x="4" y="0" class="st2" width="24" height="32"/>
	</g>
	<g class="st3">
		<rect x="2" y="2" class="st2" width="28" height="28"/>
	</g>
</g>
<g id="name" class="st0">
</g>
<g id="bold_x28_2px_x29_">
</g>
<g id="light_x28_1px_x29_" class="st0">
</g>
<g id="just_logos">
	<path id="Socialmedia_x2F_ic_x5F_socialmedia_x5F_linkedin_6_" class="st4" d="M12,27.7h5.2v-8.8c0-0.5,0-0.9,0.2-1.3
		c0.4-0.9,1.2-1.9,2.7-1.9c1.9,0,2.7,1.5,2.7,3.6v8.4H28v-9c0-4.8-2.6-7.1-6-7.1c-2.8,0-4.1,1.6-4.8,2.7h0v-2.3H12
		C12.1,13.4,12,27.7,12,27.7z M4.3,27.7h5.2V11.9H4.3V27.7z M6.9,9.8c1.8,0,3-1.2,3-2.7c0-1.5-1.1-2.7-2.9-2.7S4,5.5,4,7
		C4,8.6,5.1,9.8,6.9,9.8L6.9,9.8L6.9,9.8z"/>
</g>
</svg>
