<?xml version="1.0" encoding="utf-8"?>
<!-- Generator: Adobe Illustrator 26.3.1, SVG Export Plug-In . SVG Version: 6.00 Build 0)  -->
<svg version="1.1" id="Layer_1" xmlns="http://www.w3.org/2000/svg" xmlns:xlink="http://www.w3.org/1999/xlink" x="0px" y="0px"
	 viewBox="0 0 531 129" style="enable-background:new 0 0 531 129;" xml:space="preserve">
<style type="text/css">
	.st0{fill:#FFFFFF;}
</style>
<g>
	<g>
		<path class="st0" d="M185,90.1c11,0,18.4,5.2,18.4,13.6c0,9.1-7.9,16.9-14.8,16.9c-0.9,0-1.3-0.4-1.3-0.8c0-0.4,0.3-0.6,0.6-0.6
			c2.2,0,6.7-3.4,6.7-8c0-6-4.3-9.6-15.3-9.6c-22.7,0-54.2,10.8-89,10.8c-30.3,0-55.4-13.4-55.4-46.8c0-6.2,1.2-12.6,3.4-18.8
			c-12.5-2.2-23-8.4-23-21.8c0-10.8,8-17.8,17.1-17.8c10.8,0,14.3,7,14.3,14.5c0,0.9-0.3,1.3-0.9,1.3c-0.8,0-0.9-0.5-1-1.2
			c-0.8-3.5-3.4-6.5-8.2-6.5c-6.7,0-12.1,5.1-12.1,13.6c0,8,6.1,13,14.8,15.2c8.2-20,26.5-37,46.6-37c9.3,0,12.8,5.1,12.8,10
			c0,16.6-17.5,29.8-45.8,30.5c-1.7,5.6-2.6,11.2-2.6,16c0,28.5,16,45.3,46.6,45.3C130.9,108.7,159.9,90.1,185,90.1z M53.9,45.3
			C78.1,44.4,95.3,31,95.3,19.6c0-4-3.2-7.1-7.7-7.1C71.8,12.5,59.5,28.8,53.9,45.3z"/>
		<path class="st0" d="M117.4,65.4c0.3-0.4,0.5-0.8,1-0.8c0.4,0,0.8,0.3,0.8,0.6c0,0.5-0.3,0.9-0.5,1.3
			c-4.8,7.5-13.1,18.2-21.9,18.2c-7.4,0-10.6-3.8-10.6-8.3c0-9.6,9.3-17.2,9.3-22.2c0-2.9-0.5-3.2-0.5-3.9s0.5-1,1.2-1
			s2.2,0.9,2.9,1.4c2.3,1.8,3.8,3.9,3.8,7.3c0,3.8-4,9.2-4,16.2c0,2.6,1.7,3.9,4.2,3.9C107.6,78.1,113.3,71.8,117.4,65.4z
			 M103.8,31.7c3.1,0,4.8,1.7,4.8,4c0,3-2.3,7.3-5.2,7.3c-3.1,0-5.1-1.9-5.1-4.2C98.4,36,101.4,31.7,103.8,31.7z"/>
		<path class="st0" d="M158.8,73.6c-3.5,6.9-10.2,11.2-18.3,11.2c-6.5,0-10-3.1-10-7.8c0-4.4,4.2-7.7,8.7-7.7c2.1,0,3.6,0.3,6.6,1
			c0.8-2.3,1.3-5.2,1.3-8c0-4-1-8.4-4.3-8.4c-4.9,0-9.5,5.3-12.3,11.3c-1.9,4-3,11-3,16.3c0,1.3-0.9,3.2-4,3.2c-4.5,0-7.4-4.8-7.4-8
			c0-11.8,4.5-31.4,12.5-46.3c6.7-12.7,13.7-19.6,21.1-19.6c5.1,0,6.9,2.6,6.9,6.5c0,10.4-12.7,26.2-25.3,36.8
			c-0.6,2.1-1.3,4.4-2.5,9.3c3.1-6.9,10.1-14.1,18.3-14.1c10.2,0,14,6.2,14,13.9c0,2.6-0.6,5.8-1.6,8.2c4.8,0,8.2-1.4,11.3-6
			c0.3-0.4,0.5-0.8,1-0.8c0.4,0,0.8,0.3,0.8,0.6c0,0.5-0.3,0.9-0.5,1.3C169.2,71.1,165,73.6,158.8,73.6z M138.7,33.2
			c-5.2,11.3-6.7,17-6.7,17c10.6-8.9,21.1-23,21.1-30.2c0-1.6-1.2-2.9-2.6-2.9C148.4,17.2,144.6,20.7,138.7,33.2z M145.2,72.4
			c-2.3-0.8-4.2-1.2-5.7-1.2c-3.8,0-5.1,1.9-5.1,4.2s1.7,3.5,4,3.5C141.4,78.9,143.8,75.8,145.2,72.4z"/>
		<path class="st0" d="M209.4,65.4c0.3-0.4,0.5-0.8,1-0.8c0.4,0,0.8,0.3,0.8,0.6c0,0.5-0.3,0.9-0.5,1.3
			c-4.8,7.5-13.9,18.2-26.6,18.2c-8.9,0-15.2-3.9-15.2-13.4c0-11.9,10.2-22,22.4-22c6,0,7.9,2.9,7.9,5.8c0,7.7-10.4,13.1-16.5,15.3
			c0,4.9,3.1,8.3,7.9,8.3C199,78.8,205.3,71.8,209.4,65.4z M196.4,56.2c0-1.8-1-3.1-3-3.1c-5.1,0-10.6,7.7-10.6,15
			C188.3,66.5,196.4,61,196.4,56.2z"/>
		<path class="st0" d="M247.4,65.4c0.3-0.4,0.5-0.8,1-0.8c0.4,0,0.8,0.3,0.8,0.6c0,0.5-0.3,0.9-0.5,1.3
			c-4.8,7.5-14.3,18.2-22.7,18.2c-6.7,0-10.9-3.2-10.9-8.2c0-5.2,4.7-9.9,4.7-13.9c0-1.3-1.3-2.5-3.8-4.7c-1.3,1.9-3.4,5.4-5.1,8.2
			c-0.4,0.6-0.6,1-1.3,1c-0.4,0-0.6-0.4-0.6-0.8c0-0.4,0.4-1,0.4-1c1.8-2.9,4.2-6.5,5.3-8.6c-1.3-1.4-3.2-3.6-3.2-6.5
			c0-4,2.7-6.2,5.8-6.2c2.5,0,4.3,1.9,4.3,4.2c0,2.3-0.5,3.4-3,6c0,2.5,13.2,1.7,13.2,7.1c0,3.5-3.4,7.3-3.4,12.7
			c0,2.7,1.8,3.9,4.3,3.9C237.2,78,243.3,71.8,247.4,65.4z"/>
		<path class="st0" d="M271.4,71.3c3.4,0,7.3-1,10.5-5.8c0.3-0.4,0.5-0.8,1-0.8c0.4,0,0.8,0.3,0.8,0.6c0,0.5-0.3,0.9-0.5,1.3
			c-3,4.7-7.4,6.7-11.8,6.7c-0.8,6.5-6.5,11.4-16.5,11.4c-5.6,0-8.4-2.5-8.4-6.6c0-4,4.9-6.9,11.4-6.9c0-4.3-1.6-9.1-4.2-12.8
			c-1.4,2.1-3.1,5.1-4.8,7.8c-0.4,0.6-0.6,1-1.3,1c-0.4,0-0.6-0.4-0.6-0.8c0-0.4,0.4-1,0.4-1c1.8-2.9,3.8-6.1,5.1-8.3
			c-1.3-1.4-3.1-4-3.1-6.9c0-4,2.7-6.7,5.8-6.7c3.4,0,4.9,2.2,4.9,4.8c0,2.3-1.4,4.2-2.3,5.6C258.8,57.1,270.1,61,271.4,71.3z
			 M257.7,73.2c-5.2,0-8.3,1.4-8.3,4c0,1.4,0.9,2.5,2.5,2.5C254.9,79.7,257.4,76.6,257.7,73.2z"/>
		<path class="st0" d="M309.1,65.4c0.3-0.4,0.5-0.8,1-0.8c0.4,0,0.8,0.3,0.8,0.6c0,0.5-0.3,0.9-0.5,1.3
			c-4.8,7.5-13.1,18.2-21.9,18.2c-7.4,0-10.6-3.8-10.6-8.3c0-9.6,9.3-17.2,9.3-22.2c0-2.9-0.5-3.2-0.5-3.9s0.5-1,1.2-1
			s2.2,0.9,2.9,1.4c2.3,1.8,3.8,3.9,3.8,7.3c0,3.8-4,9.2-4,16.2c0,2.6,1.7,3.9,4.2,3.9C299.3,78.1,305,71.8,309.1,65.4z M295.5,31.7
			c3.1,0,4.8,1.7,4.8,4c0,3-2.3,7.3-5.2,7.3c-3.1,0-5.1-1.9-5.1-4.2C290.1,36,293.1,31.7,295.5,31.7z"/>
		<path class="st0" d="M347.1,65.4c0.3-0.4,0.5-0.8,1-0.8c0.4,0,0.8,0.3,0.8,0.6c0,0.5-0.3,0.9-0.5,1.3
			c-4.8,7.5-14.3,18.2-22.7,18.2c-6.7,0-10.9-3.2-10.9-8.2c0-5.2,4.7-9.9,4.7-13.9c0-1.3-1.3-2.5-3.8-4.7c-1.3,1.9-3.4,5.4-5.1,8.2
			c-0.4,0.6-0.6,1-1.3,1c-0.4,0-0.6-0.4-0.6-0.8c0-0.4,0.4-1,0.4-1c1.8-2.9,4.2-6.5,5.3-8.6c-1.3-1.4-3.2-3.6-3.2-6.5
			c0-4,2.7-6.2,5.8-6.2c2.5,0,4.3,1.9,4.3,4.2c0,2.3-0.5,3.4-3,6c0,2.5,13.2,1.7,13.2,7.1c0,3.5-3.4,7.3-3.4,12.7
			c0,2.7,1.8,3.9,4.3,3.9C336.9,78,343,71.8,347.1,65.4z"/>
		<path class="st0" d="M385.7,65.4c0.3-0.4,0.5-0.8,1-0.8c0.4,0,0.8,0.3,0.8,0.6c0,0.5-0.3,0.9-0.5,1.3
			c-4.8,7.5-13.9,18.2-26.6,18.2c-8.9,0-15.2-3.9-15.2-13.4c0-11.9,10.2-22,22.4-22c6,0,7.9,2.9,7.9,5.8c0,7.7-10.4,13.1-16.5,15.3
			c0,4.9,3.1,8.3,7.9,8.3C375.3,78.8,381.5,71.8,385.7,65.4z M372.7,56.2c0-1.8-1-3.1-3-3.1c-5.1,0-10.6,7.7-10.6,15
			C364.5,66.5,372.7,61,372.7,56.2z"/>
		<path class="st0" d="M437.7,65.4c0.3-0.4,0.5-0.8,1-0.8c0.4,0,0.8,0.3,0.8,0.6c0,0.5-0.3,0.9-0.5,1.3c-4.8,7.5-12.7,18.2-22,18.2
			c-6.4,0-10-3.5-10-8.7c0-8.4,8.3-15.7,8.3-19.7c0-1.6-0.8-2.9-2.9-2.9c-3.2,0-10.6,6-14.5,13.2c-1.9,3.6-3.6,10.6-3.6,15.2
			c0,1.9-2.5,2.9-5.3,2.9c-2.6,0-6.5-1.4-6.5-7c0-10,7.5-17.8,7.5-24.9c0-2.2-0.6-3-0.6-3.8s0.6-1.4,1.6-1.4c3.1,0,7.7,4.3,7.7,7.4
			c0,2.9-0.5,6.2-0.9,8c3.8-5.8,11.8-13.7,18.7-13.7c6,0,8,3.1,8,7.1c0,5.2-4.4,12.8-4.4,17c0,2.5,1.3,4.2,4,4.2
			C428.3,77.6,433.5,71.8,437.7,65.4z"/>
		<path class="st0" d="M491.1,86.9c12.7,0,20.2-7.9,20.2-20.5c0-8.3-5.3-13.9-12.3-13.9c-5.2,0-7.8,4-7.8,6.9s1.8,4.2,3.5,4.2
			c1.8,0,2.5-0.9,3-0.9c0.3,0,0.4,0.1,0.4,0.5c0,1.4-2.5,4.8-5.6,4.8c-3.1,0-6.2-2.7-6.2-6.9c0-6.6,5.7-10.8,13.1-10.8
			c8.8,0,16.1,6.7,16.1,17.1c0,13.9-8.6,26.6-27,26.6c-15,0-22.4-10.1-24.6-18.4c-2.3,3.2-7.4,9.1-14.3,9.1
			c-7.4,0-13.2-3.8-13.2-13.1c0-12.3,10.4-22.3,23.5-22.3c4.8,0,7.1,1.8,8.9,4.4c1.9-2.2,4.4-3.8,7.1-3.8c3.8,0,5.4,2.3,5.4,5.1
			c0,4.5-3.2,10.4-6.7,14C474.6,78.3,478.7,86.9,491.1,86.9z M462.3,52.2c-6.4,0-12.2,9.2-12.2,19.7c0,5.1,1.8,7.8,4.8,7.8
			s5.8-3,8.4-6.5c0-5.7,1-13.5,4-18C466.2,53.2,464.8,52.2,462.3,52.2z"/>
	</g>
	<g>
		<path class="st0" d="M313.6,110.2c-0.1,0.4-0.2,0.8-0.2,1.2c0,0.2,0.1,0.6,0.4,0.6c0.8,0,2.7-2,3.3-2.6l0.5,0.4
			c-1.3,1.3-3.9,4.5-5.8,4.5c-1,0-1.5-0.8-1.5-1.7c0-1.4,0.5-3.1,0.8-4.5L311,108c-1.2,2.5-3.4,6.3-6.6,6.3c-2.7,0-3.5-2.3-3.5-4.6
			c0-4.4,3.9-13.6,9.1-13.6c1.4,0,2.3,0.5,3.1,1.6l1.1-5.7c0.1-0.5,0.2-0.9,0.2-1.4c0-1.6-1.6-1.7-2.8-1.7l0.1-0.6l6.4-0.6
			L313.6,110.2z M310.6,97.4c-4.1,0-6.4,8.8-6.4,12c0,0.9,0.2,3,1.6,3c2.9,0,5.4-6.5,6.1-8.8c0.3-1.2,0.7-2.7,0.7-4
			C312.6,98.5,312,97.4,310.6,97.4z"/>
		<path class="st0" d="M341.6,103.3h-4.1c-0.2,1.2-0.5,2.5-0.5,3.8c0,3.9,1.7,5.8,5.7,5.8c0.8,0,1.7-0.2,2.5-0.5l-0.2,1.1
			c-1.7,0.5-3.4,0.9-5.2,0.9c-4.1,0-6.1-2.5-6.1-6.6c0-5.7,2.7-11.6,9.2-11.6c2.3,0,4.8,0.9,4.8,3.6
			C347.7,103.2,344.2,103.3,341.6,103.3z M342.4,97.4c-2.5,0-4.1,2.5-4.5,4.8h3.2c1.8,0,3.7-0.6,3.7-2.7
			C344.7,98.2,343.5,97.4,342.4,97.4z"/>
		<path class="st0" d="M374.7,100.8h-0.8c0-2-1.3-3.4-3.4-3.4c-1.7,0-3,1.1-3,2.8c0,3.5,6.5,3.4,6.5,8.3c0,4.5-4.2,5.8-7.9,5.8
			c-1.4,0-2.9-0.2-4.2-0.7l0.5-4.2h0.8c0.2,2.3,1,3.6,3.5,3.6c2,0,4.1-1.3,4.1-3.5c0-3.6-6.5-3.6-6.5-8.1c0-3.7,3.4-5.3,6.7-5.3
			c1.4,0,2.8,0.2,4.2,0.7L374.7,100.8z"/>
		<path class="st0" d="M394.3,114.3c-1,0-1.5-0.8-1.5-1.7c0-0.8,0.2-1.6,0.3-2.3l2-10c0.1-0.4,0.2-0.8,0.2-1.2
			c0-0.2-0.1-0.6-0.3-0.6c-0.8,0-2.7,2-3.3,2.6l-0.5-0.4c1.3-1.3,3.9-4.5,5.8-4.5c1.1,0,1.4,1.1,1.4,2c0,0.7-0.2,1.4-0.3,2.1l-2,10
			c-0.1,0.4-0.2,0.8-0.2,1.2c0,0.2,0.1,0.6,0.4,0.6c0.8,0,2.7-2,3.3-2.6l0.5,0.4C398.8,111.1,396.1,114.3,394.3,114.3z M398,92.7
			c-1.2,0-2.2-1-2.2-2.2c0-1.2,1-2.2,2.2-2.2c1.2,0,2.2,0.9,2.2,2.2C400.2,91.7,399.2,92.7,398,92.7z"/>
		<path class="st0" d="M427.6,114.3c-1,5.2-3.7,7.6-9.1,7.6c-1.5,0-4.2-0.2-4.2-2.3c0-1,0.7-1.8,1.7-1.8c2.2,0,1.7,2.8,4.2,2.8
			c2.8,0,3.9-4.2,4.4-6.4l1.3-6.3l-0.1-0.1c-1.2,2.7-3.1,6.3-6.5,6.3c-2.8,0-3.6-2.3-3.6-4.7c0-4.4,4.1-13.5,9.2-13.5
			c1.3,0,2.3,0.5,3,1.6l0.2-1.2h3L427.6,114.3z M425.5,97.4c-2.9,0-5.1,5.7-5.8,8c-0.3,1.3-0.6,2.7-0.6,4.1c0,0.9,0.2,3,1.5,3
			c3.7,0,6.9-9.7,6.9-12.7C427.5,98.5,426.8,97.4,425.5,97.4z"/>
		<path class="st0" d="M458.7,114.3c-1,0-1.5-0.8-1.5-1.7c0-0.8,0.2-1.6,0.3-2.3l2.1-9.1c0.1-0.5,0.2-1.1,0.2-1.6
			c0-0.5-0.2-1.1-0.8-1.1c-2.7,0-6.4,8.9-7.1,11.1c-0.5,1.4-1,2.9-1.3,4.4h-3l2.8-13.7c0.1-0.4,0.2-0.8,0.2-1.2
			c0-0.2-0.2-0.6-0.4-0.6c-0.8,0-2.7,2-3.3,2.6l-0.5-0.4c1.3-1.3,3.9-4.5,5.8-4.5c1,0,1.5,0.8,1.5,1.7c0,0.8-0.2,1.6-0.3,2.3l-1.2,6
			l0.1,0.1c1.2-3.1,4.7-10.2,8.6-10.2c1.5,0,2.2,1.1,2.2,2.5c0,0.7-0.2,1.4-0.3,2.1l-2.2,9.5c-0.1,0.4-0.2,0.8-0.2,1.2
			c0,0.2,0.2,0.6,0.4,0.6c0.8,0,2.7-2,3.3-2.6l0.5,0.4C463.3,111.1,460.6,114.3,458.7,114.3z"/>
	</g>
</g>
</svg>
