<?xml version="1.0" encoding="utf-8"?>
<!-- Generator: Adobe Illustrator 26.3.1, SVG Export Plug-In . SVG Version: 6.00 Build 0)  -->
<svg version="1.1" id="Ebene_1" xmlns="http://www.w3.org/2000/svg" xmlns:xlink="http://www.w3.org/1999/xlink" x="0px" y="0px"
	 viewBox="0 0 32 32" style="enable-background:new 0 0 32 32;" xml:space="preserve">
<style type="text/css">
	.st0{display:none;}
	.st1{display:inline;}
	.st2{fill:#E40D7D;}
	.st3{display:inline;opacity:0.3;}
	.st4{fill:#FFFFFF;}
	.st5{fill:#010202;}
</style>
<g id="maske" class="st0">
	<g class="st1">
		<path class="st2" d="M31.8,0.2v31.6H0.2V0.2H31.8 M32,0H0v32h32V0L32,0z"/>
	</g>
	<g class="st3">
		<rect y="4" class="st2" width="32" height="24"/>
	</g>
	<g class="st3">
		<rect x="4" class="st2" width="24" height="32"/>
	</g>
	<g class="st3">
		<rect x="2" y="2" class="st2" width="28" height="28"/>
	</g>
</g>
<g id="name" class="st0">
</g>
<polygon class="st4" points="28,15 4,15 4,17 28,17 "/>
<polygon class="st4" points="28,26 4,26 4,28 28,28 "/>
<polygon class="st4" points="28,4 4,4 4,6 28,6 "/>
<g id="light_x28_1px_x29_" class="st0">
	<g id="Ebene_7" class="st1">
	</g>
	<g class="st1">
		<rect x="4" y="4" class="st5" width="24" height="1"/>
		<polygon points="28,4 4,4 4,5 28,5 		"/>
	</g>
	<g class="st1">
		<rect x="4" y="15.5" class="st5" width="24" height="1"/>
		<polygon points="28,15.5 4,15.5 4,16.5 28,16.5 		"/>
	</g>
	<g class="st1">
		<rect x="4" y="27" class="st5" width="24" height="1"/>
		<polygon points="28,27 4,27 4,28 28,28 		"/>
	</g>
</g>
</svg>
